PathFileType	4	(X/Y/Z)	18_1_6_p0_0-297.trc
DataRate	CameraRate	NumFrames	NumMarkers	Units	OrigDataRate	OrigDataStartFrame	OrigNumFrames
59.0	59.0	6	27	m	59.0	74	298
Frame#	Time	RHip			RKnee			RAnkle			RBigToe			RSmallToe			RHeel			LHip			LKnee			LAnkle			LBigToe			LSmallToe			LHeel			Neck			Head			Nose			RShoulder			RElbow			RWrist			RThumb			RIndex			RPinky			LShoulder			LElbow			LWrist			LThumb			LIndex			LPinky			
		X1	Y1	Z1	X2	Y2	Z2	X3	Y3	Z3	X4	Y4	Z4	X5	Y5	Z5	X6	Y6	Z6	X7	Y7	Z7	X8	Y8	Z8	X9	Y9	Z9	X10	Y10	Z10	X11	Y11	Z11	X12	Y12	Z12	X13	Y13	Z13	X14	Y14	Z14	X15	Y15	Z15	X16	Y16	Z16	X17	Y17	Z17	X18	Y18	Z18	X19	Y19	Z19	X20	Y20	Z20	X21	Y21	Z21	X22	Y22	Z22	X23	Y23	Z23	X24	Y24	Z24	X25	Y25	Z25	X26	Y26	Z26	X27	Y27	Z27	
74	1.2542372881355932	0.2658923246509192	0.31727928354959595	1.2235266703696002	0.22831534416813234	0.44661478345661415	1.6319441503790861	0.22902043245089812	0.5155264935411	2.0000286675468812	0.21942209487877323	0.38636920028909505	2.044217928724826	0.28378384980111787	0.4115986830370564	2.0398688159092653	0.20448468292624353	0.6178552190967	2.0636967905063686	0.061886754185254036	0.32564578995947485	1.222657150091875	0.0366260401742996	0.4812058207421353	1.6530264985621885	0.02911041334685869	0.5534681015778778	2.023794792849537	0.06385877498163783	0.3572227578009836	2.0265724677998214	0.010058314242997163	0.39741782349410665	2.030399231048587	0.03511957541332363	0.5950966862799291	2.056103659647551	0.1717868798227285	0.2971425549951235	0.7007997157704012	0.18918847255933852	0.25898242601312926	0.466855488773462	0.16761465297288822	0.1704759857296756	0.5884460455242624	0.3076374925012206	0.3007542143253204	0.7927305926452392	0.3769812267454328	0.3756990976549572	1.0586870722532504	0.36802187845420387	0.35772413925267477	1.3181779009716021	0.3169112999020989	0.34591226245740525	1.4197064968801305	0.3212315426226223	0.36154615517144206	1.4412218308953266	0.3435025277256573	0.3890964781520393	1.4444275620224347	0.003677704953123258	0.30607404579884057	0.7938809151388165	-0.03672122950611608	0.32540661195155807	1.037666850138719	-0.029177452899137285	0.3235504055390843	1.2874769357476086	0.013127011214236813	0.34490562427839005	1.3924083421943798	-0.004737741138431507	0.34414419600853047	1.4125277013824862	-0.05182921456859481	0.3889321136861662	1.4212071331376521
75	1.271186440677966	0.2659157457372085	0.3172035560064774	1.2236458483444759	0.22829069081711745	0.4465597838004109	1.6320750834053075	0.2250900842976075	0.5288865991378722	2.0112914882170614	0.2227793095734057	0.4001041953681692	2.050774146769529	0.2838453080044727	0.41187452160873117	2.0401364502623047	0.2044191185428702	0.6177681246723093	2.063728409474707	0.06109062219195031	0.32680580951263294	1.2264012292054156	0.036253276923078795	0.4831830567662819	1.6495693956796995	0.029113915600608168	0.5536278634316782	2.023865640289202	0.06642559926682723	0.3697994673939065	2.032903040964242	0.012637907105151483	0.4112866100908028	2.0372924377055783	0.03431664664287521	0.5919351103449327	2.0502828811460323	0.17200674573983626	0.29928701935564944	0.7041605904143073	0.18919592641245953	0.25892264300491585	0.46687610462371504	0.16761172458758336	0.17055260734625732	0.588460181457713	0.30762393539359084	0.3008196249195092	0.792670138585867	0.37700216775770845	0.37682284670901933	1.054993379497882	0.37126425659315054	0.34323308462464946	1.3143824487085989	0.3169285709392943	0.34581732638081814	1.419721365764108	0.32483944159027817	0.37349229327902617	1.4446412432185411	0.33956510114512894	0.38917155455598734	1.4447484269248654	0.003726853165710605	0.3060746554578485	0.7938761935211172	-0.04170013452969959	0.33817415048063515	1.039853569717413	-0.03461161897505301	0.3378923195413067	1.2873732414686	0.01305024611381205	0.3451880660950686	1.392445523545234	-0.008473363418472072	0.34316403642324034	1.412255303341255	-0.051555261706514414	0.39179210856566155	1.4263801222259596
76	1.2881355932203389	0.26528005793444526	0.318115951501855	1.2277511871258142	0.23626855374561878	0.4619386076878421	1.6372485266261028	0.22903807197845943	0.5153289813257864	2.0001511055212533	0.2228703851662425	0.39998555800146574	2.05093638989905	0.2840086297979326	0.4118802974699982	2.040313121083145	0.20898606174700948	0.6003538406690472	2.0559531822230612	0.05371141286931924	0.3246025737130728	1.2222666829659343	0.03629630290890532	0.4833704243768338	1.6495211757051382	0.02912548464352137	0.5534920819802717	2.0238151046250343	0.07113035530747278	0.3722453850831177	2.033980600145392	0.012625353149205093	0.41129150930336456	2.03736471495725	0.035223926491598945	0.5947848705023524	2.0562942845176058	0.17203572016797322	0.29932614479985303	0.7042013552859461	0.18919120943242893	0.25898237518856027	0.46690133705097847	0.1637629204944158	0.1814302332396508	0.5885341522064871	0.3074146236680945	0.30184886302542047	0.7891321916999359	0.38432162235306927	0.37456695583046884	1.0544141008754544	0.37170683678361055	0.3703914999999398	1.3212192077324658	0.31355565176918204	0.3596581253712373	1.423814053924941	0.32482702671701164	0.37390362440539765	1.4447446079198205	0.33950916103042944	0.3897786607223977	1.444672604542169	0.007965117364052431	0.30750917719079607	0.7938799441596543	-0.04624563592024246	0.3502776817724579	1.0384705583350766	-0.03467215064886017	0.3376796131562595	1.2871951069212382	0.01318329040401085	0.3435337485397367	1.3955537021592603	-0.008694283834130272	0.3427007942523614	1.4121618639226055	-0.05192925922590274	0.3886169016191995	1.420923317478539
77	1.305084745762712	0.2658148715935459	0.31768408169538426	1.2236178946781404	0.23628163689402604	0.46213462735661076	1.637286663119014	0.22903680585380667	0.5155459580656754	2.0000689650508376	0.22283615192275974	0.40016568344162146	2.050878561045446	0.28392350007661427	0.41199943383750054	2.040240498531105	0.2044593571415675	0.6177398860781038	2.063860391452996	0.05598619078835944	0.33922029387393765	1.22088812842529	0.03626862088139493	0.4830866071255099	1.6492969795944863	0.029130280298536856	0.5535357064056194	2.023782542343994	0.06622648921923129	0.36978127999816185	2.032851066240472	0.00824804190051034	0.4101578404851871	2.0366090554389893	0.03525296093750892	0.5948234891390858	2.0562137331664414	0.1720414975890242	0.29940062056114625	0.7041660495334124	0.18918177453163648	0.25894948185711336	0.4668797061261542	0.16765891953387793	0.1706178547485028	0.5884759716509923	0.3073821976757094	0.301862565560511	0.7892458096302815	0.38087941873945397	0.38965443250900794	1.0570825253815763	0.37158368510498524	0.37059890041910376	1.3212421161019459	0.31352678039251036	0.35959795032591435	1.4237043895951658	0.32113088854692107	0.3619711136092694	1.4413848470204396	0.33926201056612254	0.38997887305868334	1.4448446703470406	0.007801880602524692	0.3054547118625482	0.7901596298930893	-0.04634880657166586	0.35033654898946903	1.0385279802843956	-0.03477860148281446	0.33781277104200386	1.2872341355564905	0.012965872223401313	0.34405989383474267	1.3954641150689377	-0.007937037897419088	0.3419347053418088	1.408009244478281	-0.04665203514023895	0.37442761433323746	1.41683228944581
78	1.3220338983050848	0.2653531029538343	0.31822294571866727	1.2277748350866595	0.23631237517007658	0.4621427915226117	1.63736122412489	0.22902962156405346	0.5154805387801474	2.0000254320196973	0.2228733455383684	0.39991120947220976	2.0506423973456194	0.2838822719675395	0.4118813557092503	2.0399939450647016	0.20441157975008598	0.6177643831977171	2.0638541581592045	0.06099642416434062	0.3245086946932285	1.2217931289003279	0.03634914952281906	0.4833070592245938	1.649314891567829	0.029101654426072564	0.5535581591911006	2.023794902303685	0.06154353980597706	0.3841292591668958	2.040124601965639	0.008214832428944092	0.4102691705162794	2.0369181983693996	0.03523459368684674	0.5948139839522253	2.0562768510308707	0.17205492196127248	0.2993288669507502	0.7041868862794112	0.18918330848088064	0.258991296801978	0.466902183175693	0.16762214545341697	0.1705899803018339	0.5884303200125972	0.30737574343188745	0.3018926290159555	0.7891474686415727	0.3843989116994324	0.37483107402469107	1.054535592424439	0.37228259612948894	0.369132632288007	1.317285561480106	0.31420482376700193	0.3581851737167024	1.4196156504485087	0.3216375227233744	0.3610757026896112	1.4376103870340837	0.33994033680826136	0.3885303477821888	1.441190501833885	0.007946832288979517	0.30744269989626455	0.7938832077277851	-0.046318397852542326	0.35018999183314153	1.038629543580106	-0.0344530867671578	0.33616300854844655	1.290597277456342	0.012981343426058679	0.34394713054506204	1.395372992976487	-0.008724738434456578	0.34286200776854975	1.41216977164592	-0.046565859923466416	0.37425599541786136	1.4169857729328659
79	1.3389830508474576	0.26466643613274987	0.31594170692899337	1.2231379716616524	0.2362713431685414	0.46200242497845806	1.6370778939962038	0.22908656479269776	0.5154368813316417	2.0000411893104535	0.21960240840306097	0.385954842281954	2.044356763377783	0.28033139341282176	0.39799455353194435	2.0338150495785285	0.20453816998112692	0.6179850584133921	2.0638868861988566	0.05613818321494913	0.3392746929188832	1.2206242426619542	0.036344189408390355	0.4831926796746945	1.6488783795738922	0.029132005644224614	0.5536290257616556	2.023791397881368	0.06369031592061691	0.3566410904362092	2.026472038784822	0.005632426180694074	0.39651464190309116	2.030372052648658	0.03527513150691589	0.5951240111883029	2.0563776895985653	0.17594908924995983	0.2868470826355765	0.703565314058889	0.18916635747482402	0.25901322152088124	0.46688994348697727	0.16373374838092217	0.18146983140892453	0.5885312452021862	0.307412940772451	0.30187651900264695	0.7891594591568725	0.3810226633813264	0.38965174515142403	1.0570315999614377	0.37233581642739333	0.3694689309692235	1.3172710126731344	0.31427362119726626	0.35800325588577764	1.4193569891405613	0.32163860026703567	0.3607918460879171	1.4374213115836327	0.3407517009465591	0.38751035225680563	1.4371401741425003	0.00800602147769887	0.3073900396616238	0.7938778379187414	-0.046396014985437724	0.3504985086230454	1.0384050730838565	-0.03466316386545531	0.3362512263383789	1.2906516031871067	0.012622437119530852	0.34554739240984145	1.392035091633315	-0.008736246423011504	0.34283134856606845	1.4120939527484138	-0.05196712946823269	0.38794498415703726	1.4213405936980261
